<?xml version="1.0" encoding="iso-8859-1"?>
<!-- Generator: Adobe Illustrator 22.0.1, SVG Export Plug-In . SVG Version: 6.00 Build 0)  -->
<svg version="1.1" id="&#x5716;&#x5C64;_1" xmlns="http://www.w3.org/2000/svg" xmlns:xlink="http://www.w3.org/1999/xlink" x="0px"
	 y="0px" viewBox="0 0 1366 768" style="enable-background:new 0 0 1366 768;" xml:space="preserve">
<g>
	<polygon style="fill:#040000;" points="549.014,485.77 630.206,486.174 612.206,504.174 504.206,504.174 603.206,315.174 
		675.206,315.174 648.206,342.174 621.206,342.174 	"/>
	<polygon style="fill:#040000;" points="675.206,414.174 648.206,387.174 648.215,342.174 630.215,360.174 630.206,486.174 
		648.206,504.174 648.206,414.174 675.206,441.174 675.206,477.174 693.206,459.174 693.206,333.174 675.206,315.174 	"/>
	<polygon style="fill:#040000;" points="711.206,486.174 711.206,279.174 677.706,312.674 696.206,331.174 697.177,459.965 
		675.206,482.174 675,504 783.206,504.174 774.206,486.174 	"/>
	<path style="fill:#040000;stroke:#231815;stroke-width:0.25;stroke-miterlimit:10;" d="M697.206,450.174"/>
</g>
</svg>
